<?xml version="1.0" standalone="no"?><!DOCTYPE svg PUBLIC "-//W3C//DTD SVG 1.1//EN" "http://www.w3.org/Graphics/SVG/1.1/DTD/svg11.dtd"><svg t="1584007888737" class="icon" viewBox="0 0 1024 1024" version="1.1" xmlns="http://www.w3.org/2000/svg" p-id="1983" xmlns:xlink="http://www.w3.org/1999/xlink" width="32" height="32"><defs><style type="text/css"></style></defs><path d="M723.2 76.8H300.8c-32 0-51.2 19.2-51.2 51.2v768c0 25.6 25.6 51.2 51.2 51.2h428.8c25.6 0 51.2-25.6 51.2-51.2V128c-6.4-32-25.6-51.2-57.6-51.2z m-243.2 32h64c6.4 0 6.4 6.4 6.4 6.4s0 12.8-6.4 12.8h-64c-6.4 0-12.8-6.4-12.8-6.4s6.4-12.8 12.8-12.8zM512 908.8c-19.2 0-38.4-19.2-38.4-38.4s19.2-38.4 38.4-38.4 38.4 19.2 38.4 38.4c0 25.6-19.2 38.4-38.4 38.4z m204.8-115.2H307.2v-640h409.6v640z" p-id="1984" fill="#ffffff"></path></svg>